<?xml version="1.0" ?><!DOCTYPE svg  PUBLIC '-//W3C//DTD SVG 1.1//EN'  'http://www.w3.org/Graphics/SVG/1.1/DTD/svg11.dtd'><svg enable-background="new 0 0 500 500" height="500px" id="Layer_1" version="1.1" viewBox="0 0 500 500" width="500px" xml:space="preserve" xmlns="http://www.w3.org/2000/svg" xmlns:xlink="http://www.w3.org/1999/xlink"><path clip-rule="evenodd" d="M91.505,313.6c0,85.31,69.139,154.452,154.452,154.452h9.086  c85.317,0,154.452-69.143,154.452-154.452c0-19.174-2.724-37.521-9.086-54.513c-52.789,0-99.302,26.44-127.194,66.774v-69.044  c51.877-10.542,90.854-56.334,90.854-111.299V49.944c0-9.912-8.182-17.995-18.174-17.995c-5.093,0-9.724,2.094-12.985,5.449  l-34.534,34.168l-34.247-34.168c-7.268-7.268-18.987-7.268-26.165,0l-34.799,34.709l-35.068-34.709  c-3.274-3.354-7.905-5.449-12.995-5.449c-9.994,0-18.17,8.083-18.17,17.995v95.574c0,54.965,38.977,100.757,90.855,111.299v69.044  c-27.891-40.334-74.41-66.774-127.197-66.774C94.227,276.078,91.505,294.426,91.505,313.6z" fill="#010101" fill-rule="evenodd"/></svg>